<svg viewBox="0 0 96 96" xmlns="http://www.w3.org/2000/svg" role="img" aria-label="bibs hand mark">
	<title>bibs hand mark, draft B</title>
	<desc>Mark-only: open palm offering inside a soft round token. For favicon, avatar, app icon. Draft, not final.</desc>

	<rect x="0" y="0" width="96" height="96" rx="20" fill="#fbf8f0" />

	<g transform="translate(2 14)" fill="none" stroke="#2f3f76" stroke-width="4" stroke-linecap="round" stroke-linejoin="round">
		<path d="
			M 14 36
			Q 8 28 12 22
			Q 16 18 22 22
			Q 26 24 28 30
			Q 28 18 36 18
			Q 44 18 44 30
			Q 44 12 52 12
			Q 60 12 60 30
			Q 60 16 68 16
			Q 76 16 76 30
			Q 76 22 82 22
			Q 88 22 88 30
			L 88 38
			Q 88 50 70 54
			Q 50 56 30 54
			Q 14 50 14 36
			Z" />
		<circle cx="51" cy="40" r="4" fill="#e6b057" stroke="none" />
	</g>
</svg>
